<svg width="115" height="115" viewBox="0 0 115 115" fill="none" xmlns="http://www.w3.org/2000/svg">
<circle cx="57.5" cy="57.5" r="57.5" fill="url(#paint0_linear)"/>
<path d="M36.3442 92.2172V26.8952L47.9372 29.4669C49.6421 28.6097 51.5174 27.7525 53.5632 27.0667C55.6091 26.3809 57.8254 26.038 60.3826 26.038C63.6219 26.038 66.6906 26.7238 69.5888 27.9239C72.4871 29.124 75.0444 30.8385 77.0902 33.0674C79.3065 35.2962 81.0114 37.6965 82.2048 40.6111C83.3982 43.5257 84.0801 46.6118 84.0801 49.8694C84.0801 53.1269 83.3982 56.213 82.2048 59.1276C81.0114 62.0422 79.3065 64.614 77.0902 66.6713C74.8739 68.7287 72.4871 70.6147 69.4184 71.8148C66.3496 73.0149 63.4514 73.7007 60.2122 73.7007C57.9959 73.7007 55.95 73.5293 54.0747 73.0149C52.1994 72.5006 50.324 71.8148 48.7896 70.7861V92.0458H36.3442V92.2172ZM48.9601 50.0408C48.9601 51.5838 49.3011 53.1269 49.8126 54.4985C50.324 55.8701 51.1764 57.0702 52.1994 58.0989C53.2223 59.1276 54.4157 59.9848 55.7796 60.4992C57.1434 61.0135 58.6778 61.3564 60.2122 61.3564C61.7465 61.3564 63.2809 61.0135 64.6448 60.4992C66.0087 59.9848 67.2021 59.1276 68.225 58.0989C69.2479 57.0702 70.1003 55.8701 70.6118 54.4985C71.1232 53.1269 71.4642 51.5838 71.4642 50.0408C71.4642 48.4978 71.1232 46.9547 70.6118 45.5831C70.1003 44.2115 69.2479 43.0114 68.225 41.9827C67.2021 40.954 66.0087 40.0968 64.6448 39.5824C63.2809 39.0681 61.7465 38.7252 60.2122 38.7252C58.6778 38.7252 57.1434 39.0681 55.7796 39.5824C54.4157 40.0968 53.2223 40.954 52.1994 41.9827C51.1764 43.0114 50.324 44.2115 49.8126 45.5831C49.3011 46.9547 48.9601 48.4978 48.9601 50.0408Z" fill="white"/>
<defs>
<linearGradient id="paint0_linear" x1="16.0024" y1="14.9175" x2="94.9292" y2="86.5212" gradientUnits="userSpaceOnUse">
<stop stop-color="#A0D9ED"/>
<stop offset="1" stop-color="#349AC0"/>
</linearGradient>
</defs>
</svg>
